<svg height="800" viewBox="0 -.5 17 17" width="800" xmlns="http://www.w3.org/2000/svg"><g fill="#000" fill-rule="evenodd" transform="translate(1)"><path d="m0 14.977c0 .537.275.974.615.974h13.77c.34 0 .615-.437.615-.974 0-.539-.275-.976-.615-.976h-13.77c-.34 0-.615.437-.615.976z"/><path d="m11.053 12.258c0 .377.365.686.816.686h1.223c.451 0 .815-.309.815-.686v-3.44c0-.378-.364-.686-.815-.686h-1.223c-.451 0-.816.308-.816.686z"/><path d="m6.089 12.259c0 .378.365.685.815.685h1.224c.45 0 .815-.307.815-.685v-4.48c0-.378-.365-.685-.815-.685h-1.224c-.45 0-.815.307-.815.685z"/><path d="m1.062 12.232c0 .375.367.68.824.68h1.236c.456 0 .824-.305.824-.68v-6.505c0-.375-.368-.68-.824-.68h-1.236c-.457 0-.824.305-.824.68z"/><path d="m14.266 6.921c.379-.001.691-.297.705-.673.014-.385-.291-.706-.682-.719-5.004-.177-9.768-2.105-13.074-5.293-.279-.268-.725-.265-1.001.012-.272.274-.267.717.012.985 3.606 3.477 8.583 5.497 14.014 5.687.009.001.018.001.026.001z"/></g></svg>
