<svg clip-rule="evenodd" fill-rule="evenodd" height="800" stroke-linecap="round" stroke-linejoin="round" stroke-miterlimit="1.5" viewBox="7 6 22 22" width="800" xmlns="http://www.w3.org/2000/svg"><path d="m18.003 23.922h-.001c-1.105 0-2.002.897-2.002 2.002s.897 2.002 2.002 2.002c1.104 0 2.001-.897 2.001-2.002v-7.122s6.001-.75 6.001-.75l.003 3.867c-1.105 0-2.002.897-2.002 2.002 0 1.104.897 2.001 2.002 2.001s2.002-.897 2.002-2.001l-.006-7.003c0-.286-.123-.559-.338-.749s-.501-.278-.786-.242l-8 1c-.5.062-.876.488-.876.992z"/><path d="m18.003 23.922h-.001c-1.105 0-2.002.897-2.002 2.002s.897 2.002 2.002 2.002c1.104 0 2.001-.897 2.001-2.002v-7.122s6.001-.75 6.001-.75l.003 3.867c-1.105 0-2.002.897-2.002 2.002 0 1.104.897 2.001 2.002 2.001s2.002-.897 2.002-2.001l-.006-7.003c0-.286-.123-.559-.338-.749s-.501-.278-.786-.242l-8 1c-.5.062-.876.488-.876.992z"/><path d="m27 12.994.009-6.035c0-.53-.211-1.039-.586-1.414s-.884-.586-1.414-.586c-4.185 0-13.824 0-18.009 0-.53 0-1.039.211-1.414.586s-.586.884-.586 1.414v18c0 .531.211 1.04.586 1.415s.884.585 1.414.585l6 .039" fill="none" stroke-width="2"/><path d="m9.004 10h13.983c.552 0 1-.448 1-1s-.448-1-1-1h-13.983c-.552 0-1 .448-1 1s.448 1 1 1z"/><path d="m9.004 13.994h13.983c.552 0 1-.448 1-1s-.448-1-1-1h-13.983c-.552 0-1 .448-1 1s.448 1 1 1z"/><path d="m9.004 18h5.981c.552 0 1-.448 1-1s-.448-1-1-1h-5.981c-.552 0-1 .448-1 1s.448 1 1 1z"/><path d="m9.004 22.006h5.981c.552 0 1-.448 1-1s-.448-1-1-1h-5.981c-.552 0-1 .448-1 1s.448 1 1 1z"/></svg>