<svg fill="none" height="800" viewBox="0 0 24 24" width="800" xmlns="http://www.w3.org/2000/svg"><path clip-rule="evenodd" d="m5.163 3.819c-.163.32-.163.74-.163 1.581v13.2c0 .84 0 1.26.163 1.581a1.5 1.5 0 0 0 .656.655c.32.164.74.164 1.581.164h.2c.84 0 1.26 0 1.581-.163a1.5 1.5 0 0 0 .656-.656c.163-.32.163-.74.163-1.581v-13.2c0-.84 0-1.26-.163-1.581a1.5 1.5 0 0 0 -.656-.656c-.32-.163-.74-.163-1.581-.163h-.2c-.84 0-1.26 0-1.581.163a1.5 1.5 0 0 0 -.656.656zm9 0c-.163.32-.163.74-.163 1.581v13.2c0 .84 0 1.26.164 1.581a1.5 1.5 0 0 0 .655.655c.32.164.74.164 1.581.164h.2c.84 0 1.26 0 1.581-.163a1.5 1.5 0 0 0 .655-.656c.164-.32.164-.74.164-1.581v-13.2c0-.84 0-1.26-.163-1.581a1.5 1.5 0 0 0 -.656-.656c-.32-.163-.74-.163-1.581-.163h-.2c-.84 0-1.26 0-1.581.163a1.5 1.5 0 0 0 -.655.656z" fill="#000" fill-rule="evenodd"/></svg>