<svg height="30" viewBox="0 0 30 30" width="30" xmlns="http://www.w3.org/2000/svg"><path d="m14.703125 5.5722656a12 12 0 0 0 -12 12.0000004 12 12 0 0 0 .6894531 3.964843 10.746539 10.746539 0 0 1 -.2949219-2.443359 10.746539 10.746539 0 0 1 10.7460938-10.7460938 10.746539 10.746539 0 0 1 5.982422 1.8261718l2.140625-2.1406249a12 12 0 0 0 -7.263672-2.4609375zm9.148437 3.6035156c-.25173.00423-.507325.1022801-.71875.28125l-9.193359 7.7812498c-.422789.35795-1.416166 1.411952-.002 2.826172 1.414471 1.41445 2.468093.418804 2.826172-.0039l7.783203-9.189453c.358051-.42275.391737-1.0223328 0-1.4140628-.195869-.19587-.443582-.285475-.695313-.28125zm1.84961 3.6074218-2.021484 2.021485a10.746539 10.746539 0 0 1 .90625 4.195312h2.015624a12 12 0 0 0 .101563-1.427734 12 12 0 0 0 -1.001953-4.789063z"/></svg>