<svg height="800" viewBox="0 0 256 256" width="800" xmlns="http://www.w3.org/2000/svg"><path d="m137.33123 196.48001a13.714606 13.714606 0 0 1 -13.71428 13.71428h-109.714286a13.71429 13.71429 0 0 1 0-27.42857h109.714286a13.714606 13.714606 0 0 1 13.71428 13.71429zm118.85714-36.57143a13.715211 13.715211 0 0 1 -6.4453 11.62945l-73.14286 45.71429a13.714286 13.714286 0 0 1 -20.98327-11.62945v-91.42858a13.714286 13.714286 0 0 1 20.98327-11.62947l73.14286 45.71429a13.715211 13.715211 0 0 1 6.4453 11.62947zm-39.5904 0-33.55245-20.97043v41.94084zm-202.695306-96.00001h201.142846a13.714286 13.714286 0 0 0 0-27.42857h-201.142846a13.714286 13.714286 0 0 0 0 27.42857zm109.714286 45.71429h-109.714286a13.71429 13.71429 0 0 0 0 27.42858h109.714286a13.71429 13.71429 0 0 0 0-27.42858z" stroke-width="1.14286"/></svg>