<svg fill="none" height="800" viewBox="0 0 24 24" width="800" xmlns="http://www.w3.org/2000/svg"><path clip-rule="evenodd" d="m16.2929 3.29289c.3905-.39052 1.0237-.39052 1.4142 0l3 3c.3905.39053.3905 1.02369 0 1.41422l-3 2.99999c-.3905.3905-1.0237.3905-1.4142 0s-.3905-1.02368 0-1.41421l1.2928-1.29283h-9.73389c-2.14478 0-3.85181 1.75505-3.85181 3.99994 0 .5523-.44772 1-1 1s-1-.4477-1-1c0-3.27795 2.53229-5.99994 5.85181-5.99994h9.73399l-1.2929-1.29295c-.3905-.39053-.3905-1.02369 0-1.41422zm4.7071 7.70711c.5523 0 1 .4477 1 1 0 3.3283-2.7725 6.0001-6.0422 6.0001h-9.54353l1.29284 1.2928c.39052.3905.39052 1.0237 0 1.4142-.39053.3905-1.02369.3905-1.41422 0l-3-3c-.39052-.3905-.39052-1.0237 0-1.4142l3-3c.39053-.3905 1.02369-.3905 1.41422 0 .39052.3905.39052 1.0237 0 1.4142l-1.29296 1.293h9.54365c2.1946 0 4.0422-1.8056 4.0422-4.0001 0-.5523.4477-1 1-1z" fill="#000" fill-rule="evenodd"/></svg>