<svg height="800" viewBox="0 0 56 56" width="800" xmlns="http://www.w3.org/2000/svg"><path d="m51.0625 22.4102c1.4535 0 2.2503-.7969 2.2503-2.2969v-10.8984c0-1.6876-1.0781-2.8126-2.7188-2.8126-1.3828 0-2.1796.4453-3.2812 1.2891l-3.0002 2.3203c-.5391.4219-.75.8906-.75 1.4063 0 .75.5625 1.3828 1.5234 1.3828.3749 0 .7503-.1172 1.0781-.3985l2.4139-1.9453h.1877v9.6563c0 1.5.8203 2.2969 2.2968 2.2969zm-48.6796 4.0078c0 1.4296 1.1485 2.5781 2.5782 2.5781 1.4531 0 2.6015-1.1485 2.6015-2.5781v-1.5469c0-3.7266 2.5547-6.1875 6.3985-6.1875h12.6562v4.8984c0 1.2656.8203 2.0625 2.1094 2.0625.5625 0 1.1484-.2109 1.5937-.5859l8.8594-7.3125c1.0547-.8672 1.0313-2.25 0-3.1406l-8.8594-7.3594c-.4453-.3516-1.0312-.5859-1.5937-.5859-1.2891 0-2.1094.8203-2.1094 2.0859v4.8515h-12.1641c-7.3594 0-12.0703 4.2422-12.0703 10.8985zm21.9609 6.2812c0-1.2656-.7968-2.0625-2.0859-2.0625-.5625 0-1.1484.2109-1.5937.5625l-8.8594 7.3125c-1.0547.8672-1.0547 2.25 0 3.1406l8.8594 7.3594c.4453.375 1.0312.586 1.5937.586 1.2891 0 2.0859-.7969 2.0859-2.0625v-4.8985h17.2032c7.3594 0 12.0701-4.2656 12.0701-10.8984v-1.9219c0-1.4531-1.1482-2.6015-2.6011-2.6015-1.43 0-2.5786 1.1484-2.5786 2.6015v1.5469c0 3.7031-2.5546 6.1875-6.3982 6.1875h-17.6954z"/></svg>